<svg xmlns="http://www.w3.org/2000/svg" width="1248" height="576" viewBox="0 0 1248 576"><style>@font-face{font-family:"Noto Serif JP";font-weight:400;font-display:swap;src:url("/fonts/noto-serif-jp-japanese-400-normal.woff2") format("woff2");}@font-face{font-family:"Noto Serif JP";font-weight:700;font-display:swap;src:url("/fonts/noto-serif-jp-japanese-700-normal.woff2") format("woff2");}text{font-family:"Noto Serif JP",serif;fill:#000;stroke:#000;stroke-width:0.9;paint-order:stroke;}</style><rect width="1248" height="576" fill="#fff"/><rect x="16" y="16" width="1216" height="544" fill="none" stroke="#000" stroke-width="5"/><rect x="30" y="30" width="1188" height="516" fill="none" stroke="#000" stroke-width="2"/><path d="M 62 16 L 16 62" fill="none" stroke="#000" stroke-width="3"/><circle cx="35" cy="35" r="4" fill="#000"/><path d="M 1186 16 L 1232 62" fill="none" stroke="#000" stroke-width="3"/><circle cx="1213" cy="35" r="4" fill="#000"/><path d="M 62 560 L 16 514" fill="none" stroke="#000" stroke-width="3"/><circle cx="35" cy="541" r="4" fill="#000"/><path d="M 1186 560 L 1232 514" fill="none" stroke="#000" stroke-width="3"/><circle cx="1213" cy="541" r="4" fill="#000"/><text x="624" y="132" font-size="72" font-weight="700" text-anchor="middle" letter-spacing="28">領収書</text><text x="56" y="80" font-size="24">No. 1</text><text x="864" y="218" font-size="38" text-anchor="end">様</text><line x1="384" y1="232" x2="812" y2="232" stroke="#000" stroke-width="3"/><text x="624" y="322" font-size="66" font-weight="700" text-anchor="middle" letter-spacing="2">¥ 24,100－</text><line x1="384" y1="342" x2="864" y2="342" stroke="#000" stroke-width="3"/><text x="624" y="396" font-size="27" text-anchor="middle">但　御飲食代として</text><text x="624" y="438" font-size="27" text-anchor="middle">2026年　8月　3日</text><text x="624" y="480" font-size="24" text-anchor="middle">上記正に領収いたしました。</text><text x="1022.5" y="396" font-size="30" text-anchor="middle" font-weight="700">ポッキリＢＡＲ</text><text x="1022.5" y="432" font-size="19" text-anchor="middle">東京都渋谷区神宮前0-0-0</text><text x="1022.5" y="464" font-size="19" text-anchor="middle">電話番号：03-0000-0000</text><text x="1022.5" y="496" font-size="19" text-anchor="middle">登録番号：T1234567890123</text></svg>